<?xml version="1.0" encoding="utf-8"?>
<!-- Generator: Adobe Illustrator 19.2.1, SVG Export Plug-In . SVG Version: 6.00 Build 0)  -->
<svg version="1.1" id="Layer_1" xmlns="http://www.w3.org/2000/svg" xmlns:xlink="http://www.w3.org/1999/xlink" x="0px" y="0px"
	 viewBox="0 0 792 612" style="enable-background:new 0 0 792 612;" xml:space="preserve">
<g>
	<path d="M121.7,198.6c1.7-0.8,514-1.2,555.5-1.3c1.7,0,3.5-0.3,5.3,0.5c0.1,0.8,0.4,1.6,0.4,2.5c0.1,70.1,0.3,140.3,0.4,210.3
		c-5,1.4-11,1.2-14.8-0.5c-0.1-1.1-0.5-86.8-0.6-128.4c-0.1-21.5-0.1-67.4-0.1-68.7c-1.7-1.2-498.4-0.1-527.1,0
		c-1.3,0-2.6,0.1-4.1,0.2c-0.1,1.8-0.3,3.5-0.2,5.2c0.1,41.7,0.3,83.4,0.4,125.1c0.1,21.9,0,43.9,0.1,65.8c0,1.6-0.3,3.2,0.5,5
		c1.3,0.1,351.5,0.6,401.6,0.8c5.8,0,19.9,0.2,21,0.3c0.9,3.4,1,10.3,0.2,14.4c-1.4,0.9-436.2,0.1-438-0.6c-0.2-0.5-0.4-0.9-0.4-1.3
		c-0.2-76.1-0.3-152.1-0.5-228.2C121.3,199.4,121.6,199,121.7,198.6z"/>
	<path d="M535.7,396.4c-1,0.1-1.6,0.3-2.3,0.3c-12,0-23.9,0.1-35.7-0.1c-1.3-1.5-0.9-3-0.9-4.4c-0.1-11.7-0.2-23.4-0.2-35.1
		c-0.1-41.1-0.2-82.3-0.2-123.4c0-1.6-0.2-3.1,0.4-4.8c1-0.1,2-0.3,3-0.3c11.7,0,23.3-0.2,35.3,0.1c0.2,1.4,0.4,2.4,0.4,3.5
		c0.1,9.8,0.1,19.6,0.2,29.4c0,10.8,0.1,21.6,0.2,32.5c0,0.8,0.2,1.6,0.4,3c3.8-4,6.7-7.8,9.8-11.5c3.2-3.7,6.2-7.6,9.3-11.4
		c3.1-3.8,6.2-7.6,9.4-11.3c3.1-3.8,6.2-7.6,9.3-11.4c3.1-3.8,6.2-7.6,9.3-11.4c3.1-3.8,6.3-7.5,9.2-11.1c3.9-0.6,42.4-0.7,47.2-0.1
		c0.1,1.6-1.2,2.5-2.1,3.5c-3.6,4.3-7.3,8.5-11,12.8c-13,15.1-25.9,30.2-38.9,45.3c-4.3,5-8.6,10.1-12.9,15.1
		c-0.6,0.8-1.2,1.6-2.1,2.6c4.7,6.1,9.7,11.8,14.5,17.7c4.9,5.9,9.8,11.8,14.7,17.6c4.9,5.9,9.8,11.7,14.7,17.6
		c4.9,5.9,9.8,11.7,14.7,17.6c4.9,5.9,9.7,11.7,14.9,17.9c-0.9,0.2-1.4,0.5-1.9,0.5c-15-0.1-30-0.2-45-0.3c-1.1,0-2.3-0.2-3.5-0.3
		c-4.9-6.1-9.8-12.1-14.7-18.1c-4.9-6.1-9.8-12.1-14.7-18.2c-4.9-6.1-9.8-12.1-14.7-18.1c-4.9-6-9.7-12.1-15-18.3
		c-1,1.7-0.7,2.9-0.7,4.1c0,12,0,24,0.1,35.9c0,9.4,0.1,18.8,0.1,28.1C535.9,393.4,535.7,394.8,535.7,396.4z"/>
	<path d="M331.3,395.7c-4.8,0.6-36.4,0.5-40.3,0c-2-5-4.1-10.2-6.2-15.4c-2-5.1-4-10.2-6.1-15.5c-20.9-0.1-41.6,0-62.6,0
		c-4.7,10.3-8.3,20.8-12.8,31c-3.4,0.9-6.7,0.4-10,0.5c-3.3,0.1-6.6,0-10,0c-3.3,0-6.6,0-10,0c-3.3,0-6.6,0-10.3-0.1
		c0.3-1.2,0.5-2,0.8-2.7c4.8-12,9.7-24.1,14.5-36.1c5.6-13.9,11.2-27.8,16.8-41.7c5.3-13.1,10.5-26.2,15.7-39.4
		c5.7-14.2,11.3-28.4,17-42.6c0.6-1.6,1.4-3.1,2.2-4.8c11.7,0,23.2-0.1,35,0.1c5.8,14,11.2,28,16.7,41.9
		c5.5,13.8,10.9,27.6,16.4,41.4c5.5,13.9,11.1,27.9,16.6,41.8C320.4,367.7,325.8,381.5,331.3,395.7z M247.7,280.4
		c-2.6,4.7-3.7,9.3-5.5,13.6c-1.7,4.4-3.3,8.9-4.9,13.4c-1.6,4.5-3.4,8.9-4.9,13.4c-1.5,4.4-3.6,8.7-4.6,13.7
		c12.4,0.3,24.5,0.1,36.6,0.1c1,0,2-0.2,2.9-0.4C266.8,331,250.4,286,247.7,280.4z"/>
	<path d="M465.7,234.2c0.1,14.7,0.1,29.3,0.1,44.3c-0.9-0.5-1.6-0.7-2-1.1c-3.6-3.5-7.6-6.7-12-9.2c-8.2-4.7-17-6.9-26.5-6.7
		c-8.4,0.1-16.3,1.8-23.6,6c-9.8,5.6-16.4,13.9-20.8,24.2c-2.5,5.9-3.9,12.2-4.1,18.5c-0.5,15.7,3.9,29.7,15.8,40.6
		c7.6,6.9,16.6,10.8,26.7,12.4c5.9,0.9,11.8,0.8,17.6-0.3c9.6-1.9,17.8-6.6,25.1-12.9c1-0.8,2-1.6,3-2.4c0.1-0.1,0.3,0,0.7,0.1
		c0.1,0.8,0.2,1.6,0.2,2.4c0,13.7,0.2,27.4,0,41.1c-4,2.5-8.2,4.1-12.4,5.5c-11,3.5-22.2,4.5-33.8,3.4c-6.8-0.7-13.5-1.5-20-3.4
		c-30.1-8.8-49.9-28.3-58.8-58.1c-8.2-27.5-4.3-53.7,12.1-77.6c9.2-13.5,21.8-22.9,36.8-29.1c14.2-5.8,29-7.5,44.1-6.2
		c7.9,0.7,15.6,2.7,23.1,5.4C459.8,231.8,462.6,233,465.7,234.2z"/>
	<path d="M568.3,412.2c20.9,0.1,41.6,0.2,62.3,0.3c0.7,1.5,1.3,2.6,2,4c1.3,0.1,2.7,0.2,4.1,0.2c7.5,0,15,0.1,22.5,0.1
		c3.2,0,6.2,1,9.3,1.5c1.1,0.2,2.2,0.4,3.3,0.4c2.7,0.1,5.5,0,8.5,0c0.8,0.6,1.7,1.5,2.8,2.4c0,1.6,0,3.1,0,5.3
		c-0.7,0.6-1.7,1.4-2.9,2.5c-3.2-0.2-6.7-0.4-10.1-0.6c-4.1,1.3-8.2,2.2-12.6,2c-6.8-0.2-13.5-0.2-20.3-0.3c-1.4,0-2.9,0-4.4,0
		c-0.7,1.2-1.3,2.3-2,3.5c-1,0.1-2,0.4-2.9,0.4c-16.7-0.1-33.4-0.2-50.2-0.3c-3,0-6-0.1-9.1-0.2c-0.3-0.7-0.6-1.2-0.7-1.7
		C567.5,428.5,567.8,415.3,568.3,412.2z"/>
</g>
</svg>
